<svg id="Layer_1" enable-background="new 0 0 480 480" height="512" viewBox="0 0 480 480" width="512" xmlns="http://www.w3.org/2000/svg"><path d="m480 36.72v129.559c0 4.418-3.582 8-8 8s-8-3.582-8-8v-129.559c0-4.418 3.582-8 8-8s8 3.582 8 8zm-240 74.286c46.3 0 84.488-35.399 88.921-80.554l49.654 4.966c4.391.435 8.316-2.768 8.756-7.165.439-4.396-2.768-8.316-7.165-8.756l-58.021-5.802c-4.722-.468-8.796 3.243-8.796 7.96 0 40.446-32.905 73.351-73.351 73.351s-73.351-32.905-73.351-73.351c0-4.418-3.582-8-8-8s-8 3.582-8 8c.002 49.268 40.085 89.351 89.353 89.351zm-151.117 292.338c0 4.418 3.582 8 8 8h286.233c4.418 0 8-3.582 8-8v-237.065c0-4.418-3.582-8-8-8s-8 3.582-8 8v229.065h-270.233v-229.065c0-4.418-3.582-8-8-8h-80.883v-114.319l90.689-9.068c4.396-.44 7.604-4.36 7.165-8.756-.44-4.396-4.363-7.603-8.756-7.165l-97.894 9.789c-4.09.409-7.204 3.85-7.204 7.96v129.559c0 4.418 3.582 8 8 8h80.883zm381.772 49.833c-.739-2.437-.732-2.068-15.998-17.334-3.124-3.124-8.189-3.124-11.313 0-2.854 2.854-3.51 7.804.343 11.657h-366.687c-4.418 0-8 3.582-8 8s3.582 8 8 8h366.687c-3.792 3.792-3.252 8.748-.343 11.657 3.125 3.125 8.189 3.124 11.313 0 9.252-9.252 14.134-14.062 14.732-14.856 1.533-2.041 2.004-4.681 1.266-7.124zm-423.998-17.334c-3.124-3.124-8.189-3.124-11.313 0l-14 14c-3.125 3.124-3.125 8.189 0 11.313l14 14c1.562 1.562 3.609 2.343 5.657 2.343 7.062 0 10.712-8.602 5.657-13.657l-8.343-8.343 8.343-8.343c3.123-3.124 3.123-8.189-.001-11.313zm376.343-406.03v322.687c0 4.418 3.582 8 8 8s8-3.582 8-8v-322.687c1.669 1.669 3.488 2.687 6 2.687 7.062 0 10.712-8.602 5.657-13.657-.469-.469-14.075-14.111-14.588-14.531-1.611-1.326-3.732-1.982-5.855-1.772-3.633.353-3.925 1.359-18.87 16.303-3.125 3.124-3.125 8.189 0 11.313 2.853 2.854 7.804 3.509 11.656-.343zm2.343 378.343c3.125 3.125 8.189 3.124 11.313 0l14-14c3.125-3.124 3.125-8.189 0-11.313-3.124-3.124-8.189-3.124-11.313 0l-8.343 8.342-8.343-8.343c-3.124-3.124-8.189-3.124-11.313 0-3.125 3.124-3.125 8.189 0 11.313z"/></svg>